<?xml version="1.0" encoding="utf-8"?>
<!-- Generator: Adobe Illustrator 24.1.0, SVG Export Plug-In . SVG Version: 6.00 Build 0)  -->
<svg version="1.1" id="Layer_1" xmlns="http://www.w3.org/2000/svg" xmlns:xlink="http://www.w3.org/1999/xlink" x="0px" y="0px"
	 viewBox="0 0 24 24" style="enable-background:new 0 0 24 24;" xml:space="preserve">
<style type="text/css">
	.st0{fill:#6B4D6A;}
	.st1{fill:#FFFFFF;}
</style>
<g id="Group-3_1_" transform="translate(87.000000, 0.000000)">
	<path id="Oval_1_" class="st0" d="M-75,0c6.63,0,12,5.37,12,12s-5.37,12-12,12s-12-5.37-12-12S-81.63,0-75,0z"/>
	<path id="Combined-Shape_1_" class="st1" d="M-75.08,12.74c0.25-0.07,0.52-0.01,0.72,0.19l0,0l3.34,3.42
		c0.28,0.29,0.28,0.75,0,1.04c-0.28,0.29-0.74,0.28-1.02,0l0,0l-2.89-2.96l-2.94,2.91c-0.25,0.25-0.64,0.28-0.92,0.1l-0.12-0.09
		c-0.29-0.28-0.29-0.74,0-1.02l0,0l3.39-3.36c0.11-0.11,0.24-0.17,0.38-0.2L-75.08,12.74z M-76.4,10.7c0.41,0,0.73,0.32,0.73,0.72
		c0,0.4-0.33,0.72-0.73,0.72l0,0h-3.87c-0.41,0-0.73-0.32-0.73-0.72c0-0.4,0.33-0.72,0.73-0.72l0,0H-76.4z M-74.47,6
		c0.4,0,0.72,0.33,0.72,0.73l0,0l0,3.97l4.15,0c0.36,0,0.66,0.26,0.72,0.59l0.01,0.13c0,0.4-0.33,0.72-0.73,0.72l0,0h-4.8
		c-0.06,0-0.12-0.01-0.17-0.02c-0.35-0.05-0.61-0.36-0.61-0.73l0,0V6.73C-75.19,6.33-74.86,6-74.47,6z"/>
</g>
</svg>
